          Pocahontas-2(1998)720p BDRip In[Hindi-Eng]-DGrea8


Summary:-


Pocahontas sets off on a journey to England with Meeko, Flit, and Percy.
Hearing rumors of John Smith's death, Pocahontas tries to prevent war and battle.


Cast:-

Irene Bedard	 ...	Pocahontas (voice)
Jim Cummings	 ...	King James (voice)
Donal Gibson	 ...	John Smith (voice)
Finola Hughes	 ...	Additional voices (voice)
Linda Hunt	 ...	Grandmother Willow (voice)
Russell Means	 ...	owhatan (voice)
David Ogden Stiers	 ...	Ratcliffe (voice)
Jean Stapleton	 ...	Mrs. Jenkins (voice)
Billy Zane	 ...	John Rolfe (voice)
Jeff Bennett	 ...	Additional voices (voice)
Brad Garrett	 ...	Additional voices (voice)
Rob Paulsen	 ...	Additional voices (voice)
Gregg Rainwater	 ...	Additional voices (voice)
William Morgan Sheppard	 ...	Additional voices (voice) (as Morgan Sheppard)
Kath Soucie	 ...	Additional voices (voice)


Video & Audio Info.:-


Directors: Tom Ellery, Bradley Raymond
Writers: Allen Estrin (screenplay), Cindy Marcus (screenplay)
Stars: Irene Bedard, Donal Gibson, Jim Cummings


Video
ID : 1
Format : AVC
Duration : 1h 10mn
Bit rate : 1 127 Kbps
Width : 1 280 pixels
Height : 720 pixels
Display aspect ratio : 16:9
Frame rate mode : Variable
Frame rate : 25.000 fps
Color space : YUV
Chroma subsampling : 4:2:0
Bit depth : 8 bits
Scan type : Progressive


Audio #1
ID : 2
Format : AC-3
Codec ID : A_AC3
Duration : 1h 10mn
Bit rate mode : Constant
Bit rate : 224 Kbps
Channel(s) : 6 channels
Channel positions : Front: L C R, Side: L R, LFE
Sampling rate : 48.0 KHz
Bit depth : 16 bits
Compression mode : Lossy
Stream size : 112 MiB (14%)
Language : English

Audio #2
ID : 3
Duration : 1h 10mn
Bit rate mode : Constant
Bit rate : 224 Kbps
Channel(s) : 2 channels
Sampling rate : 48.0 KHz
Compression mode : Lossy
Stream size : 112 MiB (14%)
Title : Hindi
Language : Hindi


Subtitle Languages : Chinese,English


Screen Shoots:-
     
http://www.shotpix.com/images/03551125828649503575.jpg
 
http://www.shotpix.com/images/26688316967294528806.jpg
 
http://www.shotpix.com/images/57534379461849851967.jpg
 
http://www.shotpix.com/images/65763802431617820137.jpg
 
http://www.shotpix.com/images/73502022778402999362.jpg


Note:--

 Check The Sample Video In This Torrent	